<?xml version="1.0" encoding="utf-8"?>
<!-- Generator: Adobe Illustrator 26.0.1, SVG Export Plug-In . SVG Version: 6.00 Build 0)  -->
<svg version="1.1" id="레이어_1" xmlns="http://www.w3.org/2000/svg" xmlns:xlink="http://www.w3.org/1999/xlink" x="0px"
	 y="0px" viewBox="0 0 218.5 30" style="enable-background:new 0 0 218.5 30;" xml:space="preserve">
<style type="text/css">
	.st0{fill:#002F87;}
</style>
<g>
	<g>
		<path class="st0" d="M19.5,12.1v2h-8v7.2H8v-7.2H0v-2H19.5z M6,0.4v2.8h7.6V0.4H17v9.8H4.9c-0.7,0-1.3-0.2-1.7-0.6
			c-0.4-0.4-0.7-1-0.7-1.6V0.4H6z M13.6,5.1H6v3.1h7.6V5.1z"/>
	</g>
	<path class="st0" d="M190.7,0.6l0,2.5l-3.4,0l0-2l-3.7,0l0,3.1l-4.4,0l0-3.1l-3.7,0l0,8.4c0,1.1,0.9,2.1,2.1,2.1l9.8,0l0-1.7l3.4,0
		l0,2.5l3.7,0l0-11.8L190.7,0.6z M183.5,9.1l-4.4,0l0-2.4l4.4,0L183.5,9.1z M190.7,7.4l-3.4,0l0-2l3.4,0L190.7,7.4z"/>
	<path class="st0" d="M133.5,14.6l-3.7,0l0,5c0,1.1,0.9,2.1,2.1,2.1l13.2,0l0-2.5l-11.5,0L133.5,14.6z"/>
	<path class="st0" d="M205.4,19.3l0-3.8l-3.7,0l0,4.2c0,1.1,0.9,2.1,2.1,2.1l14.6,0l0-2.5L205.4,19.3z"/>
	<path class="st0" d="M159,1l0,3.1l-4.4,0l0-3.1l-3.7,0l0,8.4c0,1.1,0.9,2.1,2.1,2.1l9.8,0l0-10.5L159,1z M159,9l-4.4,0l0-2.4l4.4,0
		L159,9z"/>
	<polygon class="st0" points="144.2,0.5 140.5,0.5 140.5,16 144.2,16 144.2,7.5 147.8,7.5 147.8,5.1 144.2,5.1 	"/>
	<polygon class="st0" points="169.3,0.5 165.6,0.5 165.6,12.3 169.3,12.3 169.3,6.4 172.9,6.4 172.9,4 169.3,4 	"/>
	<polygon class="st0" points="209.1,13.1 209.1,15.5 214.2,15.5 214.2,17.2 217.9,17.2 218,0.6 214.3,0.6 214.2,13.1 	"/>
	<path class="st0" d="M137.6,8c0-1.5-0.7-2.8-1.8-3.7l2.6,0l0-2.5l-4.8,0l0-1.8l-3.7,0l0,1.8l-4.8,0l0,2.5l2.6,0
		c-1.1,0.9-1.9,2.3-1.9,3.7c0,2.8,2.6,5.1,5.9,5.1C134.9,13.1,137.6,10.8,137.6,8 M129.4,8c0-1.4,1-2.5,2.3-2.5
		c1.3,0,2.3,1.1,2.3,2.5c0,1.4-1,2.5-2.3,2.5C130.4,10.6,129.4,9.4,129.4,8"/>
	<path class="st0" d="M162.6,12.3c-3.6,0-6.5,2.3-6.5,5.2c0,2.9,2.9,5.2,6.4,5.3c3.6,0,6.5-2.3,6.5-5.2
		C169.1,14.7,166.2,12.3,162.6,12.3 M162.6,20.3c-1.5,0-2.7-1.2-2.7-2.7c0-1.5,1.2-2.7,2.7-2.7c1.5,0,2.7,1.2,2.7,2.7
		C165.3,19,164.1,20.3,162.6,20.3"/>
	<path class="st0" d="M187.6,12.4c-3.6,0-6.5,2.3-6.5,5.2c0,2.9,2.9,5.2,6.4,5.3c3.6,0,6.5-2.3,6.5-5.2
		C194,14.7,191.2,12.4,187.6,12.4 M187.6,20.3c-1.5,0-2.7-1.2-2.7-2.7c0-1.5,1.2-2.7,2.7-2.7c1.5,0,2.7,1.2,2.7,2.7
		C190.3,19.1,189.1,20.3,187.6,20.3"/>
	<path class="st0" d="M204.7,9.5c3.1,0,5.7-2.1,5.7-4.6c0-2.6-2.5-4.7-5.6-4.7c-3.1,0-5.6,2.1-5.7,4.6
		C199.1,7.4,201.6,9.5,204.7,9.5 M204.8,2.7c1.1,0,2,1,2,2.2c0,1.2-0.9,2.2-2,2.2c-1.1,0-2-1-2-2.2C202.8,3.6,203.7,2.7,204.8,2.7"
		/>
	<polygon class="st0" points="202.9,14.6 206.6,14.6 206.6,12.4 212.7,12.4 212.7,10 197.5,10 197.5,12.4 202.9,12.4 	"/>
	<path class="st0" d="M61.7,7.8l0-3.7l6.5,0l0-3.7l-18.9,0l0,3.7l6.5,0l0,3.7c0,5.7-2.9,9.7-7.5,10.6l0,4.1
		c4.2-0.6,7.8-2.7,10.3-6.2l0.2-0.3l0.2,0.3c2.5,3.5,6,5.6,10.2,6.2l0-4.1C64.6,17.4,61.7,13.5,61.7,7.8"/>
	<path class="st0" d="M72.9,27.7l0.1-27.4l5.5,0l0,5.9l5.4,0l0,3.7l-5.4,0l0,16c0,1-0.8,1.8-1.8,1.8L72.9,27.7z"/>
	<path class="st0" d="M119.1,12.7l0-12.3l-4.8,0l0,3.6l-3.9,0l0-3.6l-4.8,0l0,11l-0.3-0.1c-4.1-1.2-6.4-4.3-6.4-9.2l0-1.8l-5.9,0
		l0,1.8c0,4.9-2.3,8.1-6.6,9.2l0,4c3.8-0.6,7.1-2.5,9.3-5.4l0.2-0.3L96,9.9c1.7,2.3,4.1,4,6.8,4.9l0.4,0.1l-0.4,0.3
		c-2.1,1.6-3.4,3.9-3.4,6.3c0,4.6,4.4,8.4,9.8,8.4c2.6,0,5.1-0.9,6.9-2.5c1.8-1.6,2.9-3.7,2.9-5.9c0-2.6-1.4-5-3.7-6.6l-0.6-0.4
		l2.6,0C118.3,14.5,119.1,13.7,119.1,12.7 M109.3,26.3c-2.6,0-4.7-2.2-4.7-4.8c0-2.6,2.1-4.8,4.7-4.8c2.6,0,4.7,2.2,4.7,4.8
		C114,24.2,111.9,26.3,109.3,26.3 M114.3,14.3l-0.3-0.2c-1-0.5-2.2-0.8-3.4-0.9l-0.2,0l0-5.4l3.9,0L114.3,14.3z"/>
	<path class="st0" d="M29.5,0.7l0,3.3c0,2,0.5,3.6,1.6,4.8c1.1,1.3,2.3,2,3.7,2.3l-1.7,1.5c-1.1-0.1-2.2-0.5-3.3-1.3
		c-1.1-0.8-1.8-1.6-2.1-2.5c-0.3,0.9-1,1.7-2.1,2.5c-1.1,0.8-2.2,1.2-3.3,1.3L20.6,11c1.4-0.3,2.7-1,3.7-2.3C25.4,7.5,26,5.9,26,4
		l0-3.3L29.5,0.7z M28.8,19.5l11.1,0l0,2l-12.1,0c-0.7,0-1.3-0.2-1.7-0.6c-0.5-0.4-0.7-1-0.7-1.7l0-4.8l3.4,0L28.8,19.5z M35.7,16
		l0-15.6l3.4,0l0,4.5l3.4,0l0,2l-3.4,0l0,9.2L35.7,16z"/>
</g>
</svg>
