<?xml version="1.0" encoding="utf-8"?>
<!-- Generator: Adobe Illustrator 25.0.1, SVG Export Plug-In . SVG Version: 6.00 Build 0)  -->
<svg version="1.1" id="레이어_1" xmlns="http://www.w3.org/2000/svg" xmlns:xlink="http://www.w3.org/1999/xlink" x="0px"
	 y="0px" viewBox="0 0 170.4 30" style="enable-background:new 0 0 170.4 30;" xml:space="preserve">
<style type="text/css">
	.st0{fill:#002F87;}
</style>
<g>
	<path class="st0" d="M142.6,0.4v2.5h-3.4v-2h-3.7V4H131V0.9h-3.7v8.5c0,1.1,0.9,2.1,2.1,2.1h9.8V9.8h3.4v2.5h3.7V0.4H142.6z
		 M135.4,8.9H131V6.5h4.4V8.9z M142.6,7.3h-3.4v-2h3.4V7.3z"/>
	<path class="st0" d="M85.3,14.6h-3.7v5c0,1.1,0.9,2.1,2.1,2.1h13.2v-2.5H85.3V14.6z"/>
	<path class="st0" d="M157.4,19.2v-3.8h-3.7v4.2c0,1.1,0.9,2.1,2.1,2.1h14.6v-2.5H157.4z"/>
	<path class="st0" d="M110.8,0.9V4h-4.4V0.9h-3.7v8.5c0,1.1,0.9,2.1,2.1,2.1h9.8V0.9H110.8z M110.8,8.9h-4.4V6.5h4.4V8.9z"/>
	<polygon class="st0" points="96.1,0.4 92.3,0.4 92.3,16 96.1,16 96.1,7.5 99.7,7.5 99.7,5 96.1,5 	"/>
	<polygon class="st0" points="121.2,0.4 117.5,0.4 117.5,12.3 121.2,12.3 121.2,6.4 124.8,6.4 124.8,3.9 121.2,3.9 	"/>
	<polygon class="st0" points="161.1,12.9 161.1,15.4 166.2,15.4 166.2,17 169.9,17 169.9,0.4 166.2,0.4 166.2,12.9 	"/>
	<path class="st0" d="M89.4,8c0-1.4-0.7-2.8-1.9-3.7h2.6V1.8h-4.8V0h-3.7v1.8h-4.8v2.5h2.6c-1.1,0.9-1.9,2.3-1.9,3.7
		c0,2.8,2.6,5.1,5.9,5.1C86.8,13.2,89.4,10.9,89.4,8 M81.2,8c0-1.4,1-2.6,2.3-2.6s2.3,1.1,2.3,2.6s-1,2.6-2.3,2.6S81.2,9.4,81.2,8"
		/>
	<path class="st0" d="M114.5,12.3c-3.6,0-6.5,2.4-6.5,5.3s2.9,5.3,6.5,5.3s6.5-2.4,6.5-5.3C121,14.6,118.1,12.3,114.5,12.3
		 M114.5,20.2c-1.5,0-2.8-1.2-2.8-2.7s1.2-2.7,2.8-2.7s2.8,1.2,2.8,2.7C117.3,19,116,20.2,114.5,20.2"/>
	<path class="st0" d="M139.5,12.3c-3.6,0-6.5,2.4-6.5,5.3s2.9,5.3,6.5,5.3s6.5-2.4,6.5-5.3C146,14.6,143.1,12.3,139.5,12.3
		 M139.5,20.2c-1.5,0-2.8-1.2-2.8-2.7s1.2-2.7,2.8-2.7s2.8,1.2,2.8,2.7C142.3,19,141.1,20.2,139.5,20.2"/>
	<path class="st0" d="M156.7,9.4c3.1,0,5.7-2.1,5.7-4.7S159.8,0,156.7,0s-5.7,2.1-5.7,4.7S153.6,9.4,156.7,9.4 M156.7,2.5
		c1.1,0,2,1,2,2.2s-0.9,2.2-2,2.2s-2-1-2-2.2C154.7,3.5,155.6,2.5,156.7,2.5"/>
	<polygon class="st0" points="154.9,14.4 158.6,14.4 158.6,12.3 164.6,12.3 164.6,9.8 149.5,9.8 149.5,12.3 154.9,12.3 	"/>
	<path class="st0" d="M13.4,7.9V4.2h6.5V0.4H1v3.8h6.5v3.7c0,5.7-2.9,9.7-7.5,10.6v4.1c4.3-0.6,7.8-2.7,10.3-6.2l0.2-0.3l0.2,0.3
		c2.5,3.5,6,5.6,10.3,6.2v-4.1C16.3,17.6,13.4,13.7,13.4,7.9"/>
	<path class="st0" d="M24.6,27.9V0.4h5.5v5.9h5.4v3.8h-5.4v16c0,1-0.8,1.8-1.8,1.8L24.6,27.9L24.6,27.9z"/>
	<path class="st0" d="M70.9,12.8V0.4h-4.8v3.6h-3.9V0.4h-4.8v11L57,11.4c-4.2-1.1-6.4-4.3-6.4-9.2V0.4h-5.9v1.8
		c0,4.9-2.3,8.1-6.6,9.2v4c3.8-0.6,7.1-2.5,9.3-5.5l0.2-0.3l0.2,0.3c1.7,2.3,4.1,4,6.8,4.9l0.4,0.1l-0.4,0.3
		c-2.2,1.6-3.4,3.9-3.4,6.3c0,4.6,4.4,8.4,9.8,8.4c2.6,0,5.1-0.9,6.9-2.5c1.8-1.6,2.9-3.7,2.8-5.9c0-2.6-1.4-5-3.8-6.6l-0.7-0.4h2.6
		C70.1,14.6,70.9,13.8,70.9,12.8 M61.1,26.4c-2.6,0-4.7-2.1-4.7-4.8s2.1-4.8,4.7-4.8c2.6,0,4.7,2.1,4.7,4.8S63.7,26.4,61.1,26.4
		 M66.1,14.4l-0.3-0.2c-1-0.5-2.2-0.8-3.4-0.9l-0.2,0V7.8h3.9C66.1,7.8,66.1,14.4,66.1,14.4z"/>
</g>
</svg>
